<svg width="12" height="12" viewBox="0 0 12 12" fill="none" xmlns="http://www.w3.org/2000/svg">
<circle cx="6" cy="6" r="5.75" stroke="white" stroke-opacity="0.65" stroke-width="0.5"/>
<path d="M6.20643 9.60039C5.39227 9.60039 4.70299 9.44671 4.13858 9.13934C3.57417 8.83197 3.14462 8.40881 2.84992 7.86986C2.56022 7.32671 2.41038 6.70355 2.40039 6.00039C2.41038 5.2846 2.56522 4.65723 2.86491 4.11829C3.16459 3.57513 3.59664 3.15407 4.16106 2.85513C4.72547 2.55197 5.40976 2.40039 6.21392 2.40039C7.03306 2.40039 7.74482 2.56881 8.34919 2.90565C8.95856 3.2425 9.37562 3.70355 9.60039 4.28881L8.52151 4.57934C8.33171 4.17092 8.02953 3.85513 7.61496 3.63197C7.20539 3.4046 6.73587 3.29092 6.20643 3.29092C5.61205 3.29092 5.12006 3.40671 4.73046 3.63829C4.34087 3.86565 4.05117 4.18355 3.86137 4.59197C3.67157 5.00039 3.57417 5.46986 3.56917 6.00039C3.57916 6.81723 3.80393 7.47408 4.24347 7.97092C4.68301 8.46355 5.33733 8.70986 6.20643 8.70986C6.75585 8.70986 7.22287 8.6046 7.60747 8.39407C7.99706 8.17934 8.29175 7.86776 8.49155 7.45934L9.60039 7.73723C9.3007 8.34355 8.86116 8.80671 8.28176 9.12671C7.70237 9.4425 7.01059 9.60039 6.20643 9.60039Z" fill="white" fill-opacity="0.65"/>
</svg>

